<svg xmlns="http://www.w3.org/2000/svg" width="258" height="58" viewBox="0 0 258 58" fill="none">
<mask id="mask0_554_13963" style="mask-type:luminance" maskUnits="userSpaceOnUse" x="0" y="0" width="258" height="58">
<path d="M258 0H0V57.6007H258V0Z" fill="white"/>
</mask>
<g mask="url(#mask0_554_13963)">
<path d="M40.1471 2.34077C36.5659 0.801924 32.7097 0.00561793 28.8119 2.96188e-05C24.914 -0.00555869 21.0556 0.779688 17.4699 2.30826C11.4487 4.88449 6.48589 9.43667 3.40045 15.2135C0.315009 20.9903 -0.708587 27.6465 0.498599 34.0834C1.80959 41.0574 5.64956 47.3017 11.2818 51.6183C16.2955 55.4609 22.4347 57.5462 28.7516 57.5521C35.0684 57.5579 41.2115 55.4841 46.2323 51.6508C51.8948 47.3431 55.7567 41.0868 57.0697 34.0943C57.3946 32.341 57.5579 30.5617 57.5574 28.7785C57.558 23.1522 55.9091 17.6492 52.8147 12.9502C49.7203 8.2513 45.3161 4.56269 40.1471 2.34077ZM17.7138 36.5869C20.9697 29.9323 24.6719 23.5055 28.795 17.3505C32.8965 23.508 36.5787 29.9346 39.8166 36.5869C32.461 37.1829 25.0693 37.1829 17.7138 36.5869Z" fill="white"/>
</g>
<mask id="mask1_554_13963" style="mask-type:luminance" maskUnits="userSpaceOnUse" x="11" y="36" width="36" height="22">
<path d="M11.2706 51.667C16.2844 55.5087 22.4231 57.5938 28.7395 57.6007C35.0559 57.6075 41.199 55.5357 46.2212 51.705C44.3388 46.5792 42.1993 41.5515 39.8109 36.641C32.4571 37.2371 25.0672 37.2371 17.7134 36.641C15.3145 41.54 13.1641 46.5568 11.2706 51.6724" fill="white"/>
</mask>
<g mask="url(#mask1_554_13963)">
<path d="M46.221 36.6356H11.2705V57.6005H46.221V36.6356Z" fill="url(#paint0_linear_554_13963)"/>
</g>
<mask id="mask2_554_13963" style="mask-type:luminance" maskUnits="userSpaceOnUse" x="0" y="2" width="29" height="35">
<path d="M1.23444e-05 28.8274C-0.00164428 30.6072 0.163444 32.3833 0.493113 34.1323C6.17355 35.336 11.9257 36.1722 17.7137 36.6357C20.9645 29.9813 24.665 23.5561 28.7895 17.4048C25.309 12.1756 21.5276 7.15306 17.4644 2.36253C12.2819 4.57923 7.86427 8.26878 4.75963 12.9734C1.65499 17.6781 8.75949e-06 23.1907 1.23444e-05 28.8274Z" fill="white"/>
</mask>
<g mask="url(#mask2_554_13963)">
<path d="M28.7895 2.36253H0V36.6412H28.7895V2.36253Z" fill="url(#paint1_linear_554_13963)"/>
</g>
<mask id="mask3_554_13963" style="mask-type:luminance" maskUnits="userSpaceOnUse" x="0" y="0" width="258" height="58">
<path d="M258 0H0V57.6007H258V0Z" fill="white"/>
</mask>
<g mask="url(#mask3_554_13963)">
<path d="M0.487793 34.1326C1.79878 41.1065 5.63875 47.3508 11.271 51.6674C13.1675 46.5269 15.3133 41.5164 17.7084 36.636C11.9207 36.1694 6.16877 35.3332 0.487793 34.1326Z" fill="#5DFBAA"/>
</g>
<mask id="mask4_554_13963" style="mask-type:luminance" maskUnits="userSpaceOnUse" x="28" y="2" width="30" height="35">
<path d="M28.7897 17.4047C32.8935 23.5607 36.5758 29.9875 39.8113 36.641C45.6151 36.1774 51.3833 35.343 57.0806 34.143C58.2838 27.7133 57.2619 21.0655 54.1831 15.294C51.1043 9.52247 46.1521 4.97125 40.1418 2.3895C36.0722 7.1721 32.2818 12.1855 28.7897 17.4047Z" fill="white"/>
</mask>
<g mask="url(#mask4_554_13963)">
<path d="M57.5466 2.3895H28.7897V36.641H57.5466V2.3895Z" fill="url(#paint2_linear_554_13963)"/>
</g>
<mask id="mask5_554_13963" style="mask-type:luminance" maskUnits="userSpaceOnUse" x="0" y="0" width="258" height="58">
<path d="M258 0H0V57.6007H258V0Z" fill="white"/>
</mask>
<g mask="url(#mask5_554_13963)">
<path d="M46.243 51.699C51.9066 47.39 55.7686 41.1316 57.0804 34.1371C51.3831 35.3385 45.6149 36.1747 39.811 36.6405C42.2058 41.5491 44.3525 46.575 46.243 51.699Z" fill="#5DFBAA"/>
<path d="M40.1417 2.3892C36.5605 0.850356 32.7043 0.0540493 28.8064 0.048461C24.9086 0.0428727 21.0501 0.828119 17.4645 2.35669C21.5236 7.15235 25.3048 12.1765 28.7895 17.4044C32.2811 12.1848 36.0715 7.17137 40.1417 2.3892Z" fill="#5DFBAA"/>
<g opacity="0.1">
<mask id="mask6_554_13963" style="mask-type:luminance" maskUnits="userSpaceOnUse" x="0" y="2" width="29" height="35">
<path d="M28.7895 2.36234H0V36.641H28.7895V2.36234Z" fill="white"/>
</mask>
<g mask="url(#mask6_554_13963)">
<mask id="mask7_554_13963" style="mask-type:luminance" maskUnits="userSpaceOnUse" x="0" y="2" width="29" height="35">
<path d="M0 28.6646V28.9952C0.00929109 30.7189 0.174329 32.4382 0.493101 34.1321C6.17178 35.3354 11.9221 36.1716 17.7083 36.6355C20.963 29.9821 24.6652 23.557 28.7895 17.4046C25.309 12.1754 21.5276 7.15286 17.4644 2.36234C12.3073 4.56807 7.9069 8.23254 4.80422 12.9053C1.70153 17.5781 0.0317125 23.0557 0 28.6646Z" fill="white"/>
</mask>
<g mask="url(#mask7_554_13963)">
<path d="M21.5891 -10.1033L-14.8452 10.9321L7.1953 49.1074L43.6296 28.072L21.5891 -10.1033Z" fill="url(#paint3_linear_554_13963)"/>
</g>
</g>
</g>
<g opacity="0.1">
<mask id="mask8_554_13963" style="mask-type:luminance" maskUnits="userSpaceOnUse" x="28" y="2" width="30" height="35">
<path d="M57.5466 2.3893H28.7897V36.6408H57.5466V2.3893Z" fill="white"/>
</mask>
<g mask="url(#mask8_554_13963)">
<mask id="mask9_554_13963" style="mask-type:luminance" maskUnits="userSpaceOnUse" x="28" y="2" width="30" height="35">
<path d="M28.7897 17.4045C32.8955 23.5592 36.5779 29.9862 39.8113 36.6408C45.6151 36.1772 51.3833 35.3428 57.0806 34.1428C58.2838 27.7131 57.2619 21.0653 54.1831 15.2938C51.1043 9.52227 46.1521 4.97105 40.1418 2.3893C36.0722 7.1719 32.2818 12.1853 28.7897 17.4045Z" fill="white"/>
</mask>
<g mask="url(#mask9_554_13963)">
<path d="M56.6789 -2.53057L22.9318 3.41997L29.6558 41.5536L63.4029 35.6031L56.6789 -2.53057Z" fill="url(#paint4_linear_554_13963)"/>
</g>
</g>
</g>
<g opacity="0.1">
<mask id="mask10_554_13963" style="mask-type:luminance" maskUnits="userSpaceOnUse" x="11" y="36" width="36" height="22">
<path d="M46.2215 36.6355H11.271V57.6004H46.2215V36.6355Z" fill="white"/>
</mask>
<g mask="url(#mask10_554_13963)">
<mask id="mask11_554_13963" style="mask-type:luminance" maskUnits="userSpaceOnUse" x="11" y="36" width="36" height="22">
<path d="M11.271 51.6668C16.2848 55.5085 22.4235 57.5936 28.7398 57.6005C35.0562 57.6073 41.1994 55.5355 46.2215 51.7047C44.3391 46.579 42.1996 41.5513 39.8112 36.6408C32.4557 37.2368 25.064 37.2368 17.7084 36.6408C15.317 41.5176 13.1711 46.5263 11.271 51.6668Z" fill="white"/>
</mask>
<g mask="url(#mask11_554_13963)">
<path d="M46.2215 36.6354H11.271V57.6003H46.2215V36.6354Z" fill="url(#paint5_linear_554_13963)"/>
</g>
</g>
</g>
<path d="M67.2406 17.2635H83.6701V20.7478H77.5253V37.6974H73.38V20.7478H67.2406V17.2635Z" fill="white"/>
<path d="M89.4949 24.9527H89.5925C90.6762 23.4083 91.8521 22.6389 93.8516 22.6389C96.8806 22.6389 98.9072 24.9202 98.9072 28.1226V37.6974H95.0112V28.6916C95.0112 27.1201 94.0954 26.0093 92.4698 26.0093C90.7521 26.0093 89.4949 27.3802 89.4949 29.3797V37.6974H85.6097V17.2635H89.4949V24.9527Z" fill="white"/>
<path d="M100.582 30.3498C100.582 26.0149 103.529 22.639 107.815 22.639C112.53 22.639 115.06 26.237 115.06 31.4932H104.413C104.7 33.7528 105.957 35.1508 108.157 35.1508C109.669 35.1508 110.557 34.4626 110.985 33.3518H114.816C114.275 35.9527 111.955 38.1527 108.184 38.1527C103.307 38.1527 100.598 34.7498 100.598 30.3769M104.488 28.8055H110.991C110.877 26.9469 109.647 25.6627 107.875 25.6627C105.816 25.6627 104.819 26.8927 104.478 28.8055" fill="white"/>
<path d="M127.588 17.2635H131.858L139.06 37.6974H134.725L133.354 33.3625H125.985L124.641 37.6974H120.479L127.588 17.2635ZM126.982 30.1817H132.4L130.558 24.2916C130.217 23.2078 129.729 21.1487 129.729 21.1487H129.691C129.691 21.1487 129.176 23.2078 128.835 24.2916L126.982 30.1817Z" fill="white"/>
<path d="M140.788 17.2635H149.74C152.113 17.2635 153.88 17.9517 155.083 19.1763C156.284 20.4268 156.941 22.1026 156.909 23.8364C156.909 27.6945 154.368 30.2955 150.081 30.2955H145.053V37.6974H140.767L140.788 17.2635ZM145.075 26.9251H149.361C151.528 26.9251 152.677 25.7221 152.677 23.8635C152.677 22.0049 151.474 20.867 149.426 20.867H145.091L145.075 26.9251Z" fill="white"/>
<path d="M158.99 17.2635H167.963C170.336 17.2635 172.108 17.9517 173.306 19.1763C174.509 20.4259 175.168 22.1018 175.137 23.8364C175.137 27.6945 172.591 30.2955 168.304 30.2955H163.287V37.6974H159L158.99 17.2635ZM163.287 26.9251H167.573C169.74 26.9251 170.889 25.7221 170.889 23.8635C170.889 22.0049 169.686 20.867 167.638 20.867H163.303L163.287 26.9251Z" fill="white"/>
<path d="M196.823 34.9502H196.764C195.365 37.2965 193.453 38.1256 191.02 38.1256C189.686 38.1707 188.357 37.9285 187.125 37.4152C185.893 36.9019 184.785 36.1296 183.878 35.1507C182.084 33.0376 181.136 30.3351 181.217 27.5645C181.217 24.1616 182.42 21.1868 184.561 19.2198C186.359 17.6225 188.703 16.7785 191.106 16.8626C196.254 16.8626 199.197 19.6912 199.852 23.6956H195.799C195.344 21.7232 193.827 20.2927 191.199 20.2927C187.34 20.2927 185.428 23.4951 185.428 27.5537C185.428 31.7261 187.628 34.7822 191.144 34.7822C194.314 34.7822 196.4 32.4089 196.4 30.1547V30.0355H191.464V26.8384H200.08V37.6758H196.964L196.823 34.9502Z" fill="white"/>
<path d="M206.051 25.3807H206.138C207.021 23.7226 208.024 22.8664 209.736 22.8664C210.046 22.8474 210.356 22.886 210.652 22.9802V26.3777H210.565C208.024 26.123 206.197 27.4615 206.197 30.5501V37.6974H202.301V23.0344H206.046L206.051 25.3807Z" fill="white"/>
<path d="M211.193 30.4094C211.193 26.0365 214.309 22.6607 218.855 22.6607C223.402 22.6607 226.512 26.0365 226.512 30.4094C226.512 34.7823 223.396 38.1527 218.855 38.1527C214.315 38.1527 211.193 34.7444 211.193 30.4094ZM222.573 30.4094C222.573 27.5484 221.229 25.6085 218.861 25.6085C216.493 25.6085 215.144 27.5484 215.144 30.4094C215.144 33.2705 216.46 35.1779 218.861 35.1779C221.261 35.1779 222.573 33.2651 222.573 30.4094Z" fill="white"/>
<path d="M237.572 37.6975V35.9798H237.485C237.031 36.6691 236.405 37.2271 235.668 37.598C234.931 37.9689 234.109 38.1396 233.285 38.0931C230.034 38.0931 228.197 36.0123 228.197 32.8099V23.0562H232.055V32.1542C232.055 33.8665 232.825 34.8094 234.483 34.8094C236.314 34.8094 237.425 33.4384 237.425 31.4931V23.0345H241.316V37.6975H237.572Z" fill="white"/>
<path d="M243.483 23.0341H247.228V24.8656H247.314C247.794 24.1621 248.442 23.5895 249.199 23.1996C249.956 22.8098 250.798 22.6151 251.649 22.6331C255.535 22.6331 258.022 25.8085 258.022 30.3819C258.022 35.1232 255.448 38.1252 251.676 38.1252C249.623 38.1252 248.279 37.2961 247.45 36.039H247.39V42.4981H243.483V23.0341ZM254.055 30.4957C254.055 27.7213 253.085 25.7814 250.685 25.7814C248.284 25.7814 247.276 27.8622 247.276 30.4957C247.276 33.1291 248.507 34.8956 250.82 34.8956C252.793 34.8956 254.072 33.27 254.072 30.4957" fill="white"/>
</g>
<defs>
<linearGradient id="paint0_linear_554_13963" x1="11.4033" y1="47.2454" x2="46.3538" y2="47.2454" gradientUnits="userSpaceOnUse">
<stop stop-color="#5DFBAA"/>
<stop offset="1" stop-color="#5DFBAA"/>
</linearGradient>
<linearGradient id="paint1_linear_554_13963" x1="14.5758" y1="36.7678" x2="14.5758" y2="2.48922" gradientUnits="userSpaceOnUse">
<stop stop-color="#5DFBAA"/>
<stop offset="1" stop-color="#5DFBAA"/>
</linearGradient>
<linearGradient id="paint2_linear_554_13963" x1="43.204" y1="36.6976" x2="43.204" y2="2.44607" gradientUnits="userSpaceOnUse">
<stop stop-color="#5DFBAA"/>
<stop offset="1" stop-color="#5DFBAA"/>
</linearGradient>
<linearGradient id="paint3_linear_554_13963" x1="-2.42757" y1="29.0211" x2="26.0385" y2="12.5862" gradientUnits="userSpaceOnUse">
<stop stop-color="white"/>
<stop offset="0.12" stop-color="#FBFBFB"/>
<stop offset="0.25" stop-color="#EEEEEE"/>
<stop offset="0.37" stop-color="#DADADA"/>
<stop offset="0.5" stop-color="#BCBCBC"/>
<stop offset="0.63" stop-color="#979797"/>
<stop offset="0.76" stop-color="#696969"/>
<stop offset="0.89" stop-color="#343434"/>
<stop offset="1"/>
</linearGradient>
<linearGradient id="paint4_linear_554_13963" x1="45.7911" y1="35.9299" x2="39.8387" y2="2.17204" gradientUnits="userSpaceOnUse">
<stop/>
<stop offset="0.11" stop-color="#343434"/>
<stop offset="0.24" stop-color="#696969"/>
<stop offset="0.37" stop-color="#979797"/>
<stop offset="0.5" stop-color="#BCBCBC"/>
<stop offset="0.63" stop-color="#DADADA"/>
<stop offset="0.75" stop-color="#EEEEEE"/>
<stop offset="0.88" stop-color="#FBFBFB"/>
<stop offset="1" stop-color="white"/>
</linearGradient>
<linearGradient id="paint5_linear_554_13963" x1="11.4038" y1="47.2452" x2="46.3543" y2="47.2452" gradientUnits="userSpaceOnUse">
<stop/>
<stop offset="0.11" stop-color="#343434"/>
<stop offset="0.24" stop-color="#696969"/>
<stop offset="0.37" stop-color="#979797"/>
<stop offset="0.5" stop-color="#BCBCBC"/>
<stop offset="0.63" stop-color="#DADADA"/>
<stop offset="0.75" stop-color="#EEEEEE"/>
<stop offset="0.88" stop-color="#FBFBFB"/>
<stop offset="1" stop-color="white"/>
</linearGradient>
</defs>
</svg>